# xmcd
#
# Track frame offsets: 
#        150
#        12206
#        26255
#
# Disc length: 529 seconds
#
# Revision: 0
# Processed by: cddbd v1.5.1PL0 Copyright (c) Steve Scherf et al.
# Submitted via: ExactAudioCopy v0.95a5
#
DISCID=13020f03
DTITLE=Ron Atkinson - It's Christmas - Let's Give Love A Try (UK Maxi-
DTITLE=Single)
DYEAR=2002
DGENRE=Christmas/Holiday
TTITLE0=It's Christmas - Let's Give Love A Try (Radio Edit)
TTITLE1=It's Christmas - Let's Give Love A Try (Extended Version)
TTITLE2=It's Christmas - Let's Give Love A Try (Instrumental Version)
EXTD=
EXTT0=
EXTT1=
EXTT2=
PLAYORDER=
